Coordinates
version=1
nRows=32
nColumns=22
inDegrees=yes

Units are S.I. units (second, meters, Newtons, ...)
If the header above contains a line with 'inDegrees', this indicates whether rotational values are in degrees (yes) or radians (no).

endheader
time	pelvis_tilt	pelvis_list	pelvis_rotation	pelvis_tx	pelvis_ty	pelvis_tz	hip_flexion_r	hip_adduction_r	hip_rotation_r	knee_angle_r	ankle_angle_r	subtalar_angle_r	hip_flexion_l	hip_adduction_l	hip_rotation_l	knee_angle_l	ankle_angle_l	subtalar_angle_l	lumbar_extension	lumbar_bending	lumbar_rotation
      1.34000000	     -1.06059693	     -1.64137008	      2.86603604	     -0.64452672	      1.07697459	      1.16054644	      1.31490871	      3.85643171	     -5.89556751	    -13.30921044	     15.33193337	     -4.06222378	      3.01325682	     -3.06815863	     -0.73442397	    -18.22415173	     15.65742406	     -0.75811669	     -3.10626798	      0.48698347	     -4.77495444
      1.35000000	     -1.18903804	     -1.79923949	      2.82326693	     -0.64461409	      1.07648786	      1.16181173	      1.51786314	      4.09387850	     -5.75156804	    -13.42059677	     15.48325561	     -4.00398890	      3.71777597	     -3.28971390	     -0.65925179	    -19.25604330	     15.80654795	     -0.63714759	     -3.24668620	      0.66597355	     -4.68551877
      1.36000000	     -1.30767855	     -1.96606730	      2.78145833	     -0.64467744	      1.07599768	      1.16309513	      1.70319879	      4.34162267	     -5.61962673	    -13.52050899	     15.63354155	     -3.93949484	      4.46430757	     -3.51862034	     -0.57381287	    -20.38691385	     15.92431727	     -0.50172959	     -3.40014747	      0.85444202	     -4.59082309
      1.37000000	     -1.41148659	     -2.14157274	      2.74467396	     -0.64471407	      1.07552122	      1.16437865	      1.86125605	      4.59837147	     -5.50268852	    -13.60168856	     15.77647941	     -3.86985523	      5.25351807	     -3.75294171	     -0.47700517	    -21.62589525	     16.00114603	     -0.35742988	     -3.57370752	      1.05353208	     -4.49199351
      1.38000000	     -1.49976634	     -2.31996024	      2.71511542	     -0.64472573	      1.07506440	      1.16565389	      1.99190047	      4.85785420	     -5.40309059	    -13.66488352	     15.91421045	     -3.79492804	      6.08879293	     -3.98369463	     -0.36517371	    -22.97822299	     16.01964647	     -0.20662695	     -3.76719736	      1.25541145	     -4.39260045
      1.39000000	     -1.57369598	     -2.50135885	      2.69449052	     -0.64471914	      1.07463265	      1.16690983	      2.10037499	      5.11966689	     -5.32119022	    -13.71734004	     16.04784229	     -3.71469813	      6.97434713	     -4.20774463	     -0.23036930	    -24.44651561	     15.96805802	     -0.05391696	     -3.98180983	      1.46118476	     -4.29048235
      1.40000000	     -1.62151956	     -2.68063885	      2.68652455	     -0.64465691	      1.07425731	      1.16813306	      2.16110754	      5.37980924	     -5.25038961	    -13.73890765	     16.17144383	     -3.63377968	      7.89439985	     -4.41907122	     -0.07929873	    -26.02473297	     15.83031292	      0.08015185	     -4.22468042	      1.66571607	     -4.19427566
      1.41000000	     -1.60062109	     -2.87061534	      2.68997258	     -0.64451225	      1.07401519	      1.16932211	      2.12174751	      5.65671024	     -5.17285956	    -13.71684399	     16.24620518	     -3.56637275	      8.79177456	     -4.63000747	      0.09861225	    -27.69179411	     15.60502726	      0.15811626	     -4.54275833	      1.88719918	     -4.09794817
      1.42000000	     -1.66639625	     -3.01332937	      2.70293859	     -0.64436268	      1.07367417	      1.17045722	      2.18356986	      5.87333102	     -5.12459911	    -13.71893977	     16.40574310	     -3.47883856	      9.84147618	     -4.76483490	      0.31003069	    -29.45500897	     15.25130494	      0.27782126	     -4.76240932	      2.04900169	     -4.01794257
      1.43000000	     -1.66305716	     -3.16133531	      2.71899110	     -0.64411662	      1.07348376	      1.17155408	      2.15180553	      6.10098140	     -5.06610006	    -13.69242027	     16.51748458	     -3.41429921	     10.84191216	     -4.88365517	      0.56934292	    -31.25385858	     14.79987678	      0.34316790	     -5.05763219	      2.22166720	     -3.91724283
      1.44000000	     -1.64897859	     -3.29260658	      2.74225989	     -0.64376796	      1.07335320	      1.17258977	      2.09207716	      6.31049325	     -5.00795265	    -13.64655863	     16.62306482	     -3.36543711	     11.85096148	     -4.95745245	      0.86643620	    -33.07266335	     14.26749260	      0.38022388	     -5.35552479	      2.37643573	     -3.81427067
      1.45000000	     -1.63011989	     -3.40454083	      2.76410159	     -0.64331892	      1.07327606	      1.17358697	      2.01344022	      6.49987460	     -4.95170637	    -13.58679343	     16.71357342	     -3.33315813	     12.85617648	     -4.98109212	      1.20091702	    -34.86890509	     13.68759373	      0.38980346	     -5.65299207	      2.50795659	     -3.70644297
      1.46000000	     -1.60700523	     -3.49256713	      2.78510910	     -0.64273667	      1.07324416	      1.17451277	      1.91574718	      6.66059473	     -4.89883715	    -13.51410816	     16.79304103	     -3.31434704	     13.84543821	     -4.94744283	      1.56142175	    -36.61290640	     13.10366314	      0.36707823	     -5.94055047	      2.61287601	     -3.58171679
      1.47000000	     -1.59646032	     -3.55081874	      2.79507406	     -0.64204402	      1.07322849	      1.17538998	      1.82508830	      6.78519087	     -4.84981074	    -13.44350076	     16.86202104	     -3.30227830	     14.82633213	     -4.85301383	      1.92678007	    -38.27089149	     12.55508073	      0.30354478	     -6.20501210	      2.68191715	     -3.44544691
      1.48000000	     -1.59889255	     -3.57524527	      2.78904274	     -0.64120904	      1.07322512	      1.17620028	      1.73920622	      6.86620702	     -4.80683747	    -13.37430715	     16.91876102	     -3.28991922	     15.78615356	     -4.69694930	      2.27381211	    -39.80942050	     12.09683449	      0.18765740	     -6.44063606	      2.71165450	     -3.29333227
      1.49000000	     -1.60113120	     -3.56640494	      2.76408938	     -0.64022578	      1.07326347	      1.17695607	      1.64168426	      6.90472917	     -4.77283548	    -13.30021724	     16.92635451	     -3.26926289	     16.70086634	     -4.48465082	      2.59342705	    -41.19569775	     11.74536744	      0.02909162	     -6.66400012	      2.70127724	     -3.12012719
      1.50000000	     -1.63570546	     -3.51764276	      2.71088521	     -0.63908050	      1.07326708	      1.17765730	      1.57043100	      6.89028718	     -4.73948386	    -13.23317419	     16.97248032	     -3.23655825	     17.60379839	     -4.21872028	      2.85061542	    -42.41742247	     11.54297653	     -0.19336556	     -6.83379318	      2.64255220	     -2.92434130
      1.51000000	     -1.67383554	     -3.43288742	      2.62937217	     -0.63775925	      1.07329844	      1.17831682	      1.48956929	      6.82967127	     -4.70348665	    -13.16270361	     16.99647308	     -3.18763384	     18.45676133	     -3.91310731	      3.03437972	    -43.44965535	     11.46725692	     -0.43957841	     -6.98569193	      2.54011719	     -2.71206238
      1.52000000	     -1.71569864	     -3.31484305	      2.51968490	     -0.63623501	      1.07334480	      1.17894330	      1.39665512	      6.72673652	     -4.65996548	    -13.08712598	     17.01234164	     -3.12255377	     19.25910283	     -3.58102935	      3.13022158	    -44.28472247	     11.50293586	     -0.68539877	     -7.11383127	      2.39632871	     -2.48682614
      1.53000000	     -1.75842656	     -3.18122370	      2.38935082	     -0.63451495	      1.07340357	      1.17954566	      1.29037062	      6.60192605	     -4.61500543	    -13.00652249	     17.01520429	     -3.04294434	     20.01484787	     -3.24721123	      3.14425578	    -44.92487400	     11.59913004	     -0.91296516	     -7.22325189	      2.23104813	     -2.25432087
      1.54000000	     -1.80382728	     -3.03340877	      2.24174414	     -0.63259448	      1.07346069	      1.18013537	      1.16947424	      6.45853069	     -4.56367137	    -12.91498541	     17.01508259	     -2.95200228	     20.72730102	     -2.91942412	      3.07464332	    -45.37017185	     11.72748773	     -1.10623435	     -7.31086399	      2.04487284	     -2.02435981
      1.55000000	     -1.84850051	     -2.87814329	      2.08603765	     -0.63047254	      1.07351173	      1.18070451	      1.03085603	      6.30487212	     -4.50870523	    -12.81323860	     17.01108211	     -2.85584931	     21.39546762	     -2.60555724	      2.93427451	    -45.62558182	     11.87044303	     -1.25789374	     -7.38043391	      1.84789373	     -1.80050302
      1.56000000	     -1.89775826	     -2.72215384	      1.92499272	     -0.62816127	      1.07353555	      1.18126812	      0.88412877	      6.14904385	     -4.45354558	    -12.70657086	     17.01245007	     -2.75022733	     22.02881482	     -2.31456647	      2.73159765	    -45.69949978	     12.00065386	     -1.38281166	     -7.42757492	      1.64457105	     -1.58189834
      1.57000000	     -1.94444549	     -2.56724601	      1.76684528	     -0.62566321	      1.07353335	      1.18181513	      0.72252977	      5.99350802	     -4.40169325	    -12.59609353	     17.01988535	     -2.64221928	     22.61982929	     -2.04724348	      2.47786280	    -45.59763983	     12.11092767	     -1.47682997	     -7.46180747	      1.43951068	     -1.37596860
      1.58000000	     -1.98651622	     -2.41417508	      1.60954610	     -0.62298581	      1.07349914	      1.18234484	      0.54580952	      5.83906138	     -4.35394513	    -12.48513441	     17.03669696	     -2.53682953	     23.16727751	     -1.80238187	      2.18238569	    -45.32990027	     12.19044945	     -1.54280174	     -7.48894972	      1.23559267	     -1.18542467
      1.59000000	     -2.02273117	     -2.26376228	      1.46247084	     -0.62014250	      1.07343216	      1.18285219	      0.35553635	      5.68723408	     -4.31040353	    -12.37626469	     17.06237984	     -2.44576483	     23.67028103	     -1.57841396	      1.85588672	    -44.90232352	     12.23248689	     -1.57955138	     -7.51279393	      1.03248420	     -1.00943828
      1.60000000	     -2.05251973	     -2.11547692	      1.31847795	     -0.61712456	      1.07332971	      1.18333940	      0.15105916	      5.53719138	     -4.26556255	    -12.27155643	     17.10026592	     -2.36717728	     24.12758000	     -1.37637167	      1.49294481	    -44.32648692	     12.22771317	     -1.59408274	     -7.53551965	      0.83111122	     -0.85022535
      1.61000000	     -2.07698655	     -1.96934733	      1.18434295	     -0.61394250	      1.07318645	      1.18378884	     -0.06613797	      5.38838855	     -4.22370805	    -12.17007097	     17.14688592	     -2.31707484	     24.54398303	     -1.19025967	      1.10592806	    -43.61655768	     12.17094149	     -1.57957184	     -7.55653867	      0.63256439	     -0.70532946
      1.62000000	     -2.08981839	     -1.82310025	      1.05230482	     -0.61059966	      1.07301104	      1.18420646	     -0.29932045	      5.23827530	     -4.17734668	    -12.07679028	     17.20944509	     -2.29361534	     24.91350569	     -1.02057667	      0.68421132	    -42.78583676	     12.05903680	     -1.53757252	     -7.58519906	      0.43468221	     -0.57314159
      1.63000000	     -2.09474600	     -1.67512760	      0.92493278	     -0.60707191	      1.07279421	      1.18458499	     -0.54800542	      5.08433754	     -4.13199765	    -11.98959250	     17.28759406	     -2.29471852	     25.24050440	     -0.86218246	      0.23310045	    -41.84797033	     11.88857798	     -1.46840215	     -7.61346228	      0.23375803	     -0.44934095
      1.64000000	     -2.08868191	     -1.52480569	      0.79860686	     -0.60336696	      1.07253904	      1.18491987	     -0.81200610	      4.92547719	     -4.08881173	    -11.91268812	     17.38968205	     -2.30977443	     25.52208802	     -0.71243354	     -0.24754371	    -40.81431339	     11.66521846	     -1.37802119	     -7.64571139	      0.03112169	     -0.33220145
      1.65000000	     -2.07177833	     -1.37162385	      0.67396808	     -0.59947101	      1.07224079	      1.18519551	     -1.09260401	      4.75888616	     -4.05325387	    -11.84607831	     17.52152097	     -2.32597422	     25.75875950	     -0.56835878	     -0.75509898	    -39.69754655	     11.39622256	     -1.27479749	     -7.68027230	     -0.17244764	     -0.22045403
